<?xml version="1.0" encoding="utf-8"?>
<!DOCTYPE svg PUBLIC "-//W3C//DTD SVG 1.1//EN" "http://www.w3.org/Graphics/SVG/1.1/DTD/svg11.dtd">
<svg version="1.1" id="Layer_1" xmlns="http://www.w3.org/2000/svg" xmlns:xlink="http://www.w3.org/1999/xlink" x="0px" y="0px"
	 width="100px" height="100px" viewBox="0 0 100 100" enable-background="new 0 0 100 100" xml:space="preserve">
<path id="Clip" fill="#ffffff" d="M70.197,79.081v8.545c-6.172-1.021-7.686-4.049-7.697-13.503l-0.084-53.5
	c-0.012-7.742-5.932-14.014-13.221-14.001C41.907,6.635,36.01,12.92,36.023,20.674l0.096,64.052c0.012,4.79,3.662,8.661,8.165,8.65
	c4.502-0.012,8.153-3.896,8.13-8.674l-0.086-64.067c-0.012-1.827-1.393-3.296-3.108-3.296c-1.717,0-3.111,1.481-3.099,3.309
	l0.083,64.065h-6.208l-0.096-64.052c-0.012-5.467,4.154-9.9,9.307-9.913c5.137-0.013,9.317,4.407,9.329,9.875l0.096,64.067
	c0.014,8.43-6.412,15.278-14.335,15.291c-3.975,0-7.577-1.698-10.182-4.471c-2.594-2.76-4.191-6.567-4.203-10.782l-0.108-64.052
	c0-11.383,8.67-20.632,19.38-20.658c5.38,0,10.242,2.3,13.759,6.042c3.508,3.73,5.67,8.866,5.68,14.551l0.084,53.501
	C68.707,76.361,68.455,78.2,70.197,79.081z"/>
</svg>