<?xml version="1.0" encoding="utf-8"?>
<!-- Generator: Adobe Illustrator 15.1.0, SVG Export Plug-In . SVG Version: 6.00 Build 0)  -->
<!DOCTYPE svg PUBLIC "-//W3C//DTD SVG 1.1//EN" "http://www.w3.org/Graphics/SVG/1.1/DTD/svg11.dtd">
<svg version="1.1" id="Layer_1" xmlns="http://www.w3.org/2000/svg" xmlns:xlink="http://www.w3.org/1999/xlink" x="0px" y="0px"
	 width="595.28px" height="841.89px" viewBox="0 0 595.28 841.89" enable-background="new 0 0 595.28 841.89" xml:space="preserve">
<g>
	<g>
		<line fill="none" stroke="#000000" stroke-miterlimit="10" x1="0" y1="420.945" x2="7.086" y2="420.945"/>
		
			<line fill="none" stroke="#000000" stroke-miterlimit="10" stroke-dasharray="14.1733,14.1733" x1="21.26" y1="420.945" x2="581.107" y2="420.945"/>
		<line fill="none" stroke="#000000" stroke-miterlimit="10" x1="588.193" y1="420.945" x2="595.28" y2="420.945"/>
	</g>
</g>
<g>
	<g>
		<line fill="none" stroke="#000000" stroke-miterlimit="10" x1="595.28" y1="420.945" x2="590.27" y2="415.934"/>
		
			<line fill="none" stroke="#000000" stroke-miterlimit="10" stroke-dasharray="14.1732,14.1732" x1="580.247" y1="405.912" x2="184.379" y2="10.043"/>
		<line fill="none" stroke="#000000" stroke-miterlimit="10" x1="179.368" y1="5.033" x2="174.357" y2="0.021"/>
	</g>
</g>
<g>
	<g>
		<line fill="none" stroke="#000000" stroke-miterlimit="10" x1="420.924" y1="841.867" x2="415.913" y2="836.856"/>
		
			<line fill="none" stroke="#000000" stroke-miterlimit="10" stroke-dasharray="14.1732,14.1732" x1="405.891" y1="826.834" x2="10.022" y2="430.967"/>
		<line fill="none" stroke="#000000" stroke-miterlimit="10" x1="5.011" y1="425.955" x2="0" y2="420.944"/>
	</g>
</g>
<g>
	<g>
		<line fill="none" stroke="#000000" stroke-miterlimit="10" x1="508.102" y1="841.867" x2="508.102" y2="834.78"/>
		
			<line fill="none" stroke="#000000" stroke-miterlimit="10" stroke-dasharray="14.1122,14.1122" x1="508.102" y1="820.668" x2="508.102" y2="347.909"/>
		<line fill="none" stroke="#000000" stroke-miterlimit="10" x1="508.102" y1="340.853" x2="508.102" y2="333.766"/>
	</g>
</g>
<g>
	<g>
		<line fill="none" stroke="#000000" stroke-miterlimit="10" x1="87.178" y1="508.122" x2="87.178" y2="501.035"/>
		
			<line fill="none" stroke="#000000" stroke-miterlimit="10" stroke-dasharray="14.1122,14.1122" x1="87.178" y1="486.923" x2="87.178" y2="14.164"/>
		<line fill="none" stroke="#000000" stroke-miterlimit="10" x1="87.178" y1="7.108" x2="87.178" y2="0.021"/>
	</g>
</g>
<g>
	<g>
		<line fill="none" stroke="#000000" stroke-miterlimit="10" x1="87.178" y1="842.33" x2="92.189" y2="837.319"/>
		
			<line fill="none" stroke="#000000" stroke-miterlimit="10" stroke-dasharray="14.1732,14.1732" x1="102.211" y1="827.297" x2="498.08" y2="431.429"/>
		<line fill="none" stroke="#000000" stroke-miterlimit="10" x1="503.091" y1="426.417" x2="508.102" y2="421.406"/>
	</g>
</g>
<g>
	<g>
		<line fill="none" stroke="#000000" stroke-miterlimit="10" x1="87.178" y1="420.945" x2="92.189" y2="415.934"/>
		
			<line fill="none" stroke="#000000" stroke-miterlimit="10" stroke-dasharray="14.1732,14.1732" x1="102.211" y1="405.912" x2="498.08" y2="10.043"/>
		<line fill="none" stroke="#000000" stroke-miterlimit="10" x1="503.091" y1="5.032" x2="508.102" y2="0.021"/>
	</g>
</g>
</svg>
