<?xml version="1.0" encoding="utf-8"?>
<!-- Generator: Adobe Illustrator 15.1.0, SVG Export Plug-In . SVG Version: 6.00 Build 0)  -->
<!DOCTYPE svg PUBLIC "-//W3C//DTD SVG 1.1//EN" "http://www.w3.org/Graphics/SVG/1.1/DTD/svg11.dtd">
<svg version="1.1" id="Layer_1" xmlns="http://www.w3.org/2000/svg" xmlns:xlink="http://www.w3.org/1999/xlink" x="0px" y="0px"
	 width="100px" height="100px" viewBox="0 0 100 100" enable-background="new 0 0 100 100" xml:space="preserve">
<path id="Circle" fill="#1976D2" d="M100.015,49.839c0,1.578-0.067,3.133-0.216,4.677c-2.281,25.069-23.116,44.795-48.702,45.353
	c-0.337,0.008-0.682,0.015-1.025,0.015C22.44,99.924,0.013,77.598-0.034,50.001C-0.082,22.404,22.285-0.003,49.909-0.043
	C77.54-0.09,99.974,22.249,100.015,49.839z"/>
<path id="Shadow" fill="#004BA0" d="M99.8,54.52C97.52,79.59,76.68,99.31,51.1,99.87L36.76,85.55c2.17,2.17,5.17,3.5,8.48,3.5
	c6.6-0.01,11.95-5.37,11.939-11.97L57.1,26.93c-0.01-4.28-3.489-7.74-7.77-7.73c-4.29,0.01-7.76,3.48-7.75,7.76l0.08,50.14h5.17
	L46.76,26.95c-0.01-1.43,1.15-2.59,2.58-2.59c1.43,0,2.58,1.15,2.59,2.58L52,77.09c0.02,3.74-3.02,6.78-6.77,6.79
	s-6.79-3.02-6.8-6.77l-0.08-50.14c-0.01-6.07,4.9-10.99,10.97-11c6.07-0.01,11,4.9,11.01,10.96L60.4,68.81
	c0.01,7.4,1.27,9.771,6.409,10.57V72.69C65.36,72,65.57,70.56,65.57,68.8L65.5,26.92c-0.01-4.45-1.81-8.47-4.73-11.39L99.8,54.52z"
	/>
<path id="Clip" fill="#FFFFFF" d="M66.81,72.69v6.689c-5.14-0.8-6.399-3.17-6.409-10.57L60.33,26.93
	c-0.01-6.06-4.94-10.97-11.01-10.96c-6.07,0.01-10.98,4.93-10.97,11l0.08,50.14c0.01,3.75,3.05,6.779,6.8,6.77s6.79-3.05,6.77-6.79
	l-0.07-50.15c-0.01-1.43-1.16-2.58-2.59-2.58c-1.43,0-2.59,1.16-2.58,2.59L46.83,77.1h-5.17l-0.08-50.14
	c-0.01-4.28,3.46-7.75,7.75-7.76c4.28-0.01,7.76,3.45,7.77,7.73l0.08,50.15c0.011,6.6-5.34,11.96-11.939,11.97
	c-3.31,0-6.31-1.33-8.48-3.5c-2.16-2.16-3.49-5.14-3.5-8.439l-0.09-50.14c0-8.91,7.22-16.15,16.14-16.17
	c4.48,0,8.53,1.8,11.459,4.73c2.921,2.92,4.721,6.94,4.73,11.39l0.07,41.88C65.57,70.56,65.36,72,66.81,72.69z"/>
</svg>
