<?xml version="1.0" encoding="UTF-8" standalone="no"?>
<svg
   xmlns:dc="http://purl.org/dc/elements/1.1/"
   xmlns:cc="http://creativecommons.org/ns#"
   xmlns:rdf="http://www.w3.org/1999/02/22-rdf-syntax-ns#"
   xmlns:svg="http://www.w3.org/2000/svg"
   xmlns="http://www.w3.org/2000/svg"
   xmlns:sodipodi="http://sodipodi.sourceforge.net/DTD/sodipodi-0.dtd"
   xmlns:inkscape="http://www.inkscape.org/namespaces/inkscape"
   version="1.1"
   id="Layer_1"
   x="0px"
   y="0px"
   width="100px"
   height="100px"
   viewBox="0 0 100 100"
   enable-background="new 0 0 100 100"
   xml:space="preserve"
   sodipodi:docname="clip.svg"
   inkscape:export-filename="/yes/Documents/Coding/sapper-blog-test/static/logo-192.png"
   inkscape:export-xdpi="184.32001"
   inkscape:export-ydpi="184.32001"
   inkscape:version="0.92.4 5da689c313, 2019-01-14"><metadata
   id="metadata8"><rdf:RDF><cc:Work
       rdf:about=""><dc:format>image/svg+xml</dc:format><dc:type
         rdf:resource="http://purl.org/dc/dcmitype/StillImage" /></cc:Work></rdf:RDF></metadata><defs
   id="defs6" /><sodipodi:namedview
   pagecolor="#ffffff"
   bordercolor="#666666"
   borderopacity="1"
   objecttolerance="10"
   gridtolerance="10"
   guidetolerance="10"
   inkscape:pageopacity="0"
   inkscape:pageshadow="2"
   inkscape:window-width="1920"
   inkscape:window-height="1016"
   id="namedview4"
   showgrid="false"
   inkscape:zoom="2.36"
   inkscape:cx="7.6271186"
   inkscape:cy="50"
   inkscape:window-x="0"
   inkscape:window-y="27"
   inkscape:window-maximized="1"
   inkscape:current-layer="Layer_1" />
<path
   id="Clip"
   d="m 77.347838,65.16606 3.329948,6.818572 C 75.354895,73.575115 72.966784,71.74889 69.273826,64.209258 L 48.358082,21.551105 c -3.026546,-6.173159 -10.194696,-8.870945 -16.005964,-6.02008 -5.810467,2.85048 -8.066806,10.16369 -5.034734,16.34601 l 25.037378,51.07356 c 1.876165,3.81758 6.297284,5.484072 9.886213,3.720494 3.587767,-1.763933 4.98752,-6.286041 3.107201,-10.089734 L 40.312925,25.491932 c -0.721498,-1.453222 -2.395996,-2.087231 -3.764498,-1.418904 -1.370098,0.669107 -1.905315,2.394123 -1.183377,3.848118 L 60.397124,79.010144 55.443385,81.429373 30.406008,30.355815 c -2.13999,-4.3578 -0.543257,-9.518606 3.563567,-11.537081 4.094054,-2.012246 9.151986,-0.114185 11.292417,4.244391 L 70.305225,74.14865 c 3.296306,6.72135 0.837245,14.689969 -5.47993,17.787901 -3.171894,1.549039 -6.70785,1.597784 -9.867163,0.400197 -3.145469,-1.191501 -5.903384,-3.606993 -7.555526,-6.96572 L 22.355651,34.302146 c -4.435904,-9.083185 -1.12188,-19.842182 7.414145,-24.03657 4.293028,-2.0965619 9.069011,-2.1559509 13.33368,-0.5405418 4.252809,1.6093408 7.979476,4.8651438 10.202875,9.3976538 l 20.916134,42.658949 c 0.876425,1.794614 1.391988,3.360267 3.125358,3.38442 z"
   inkscape:connector-curvature="0"
   style="fill:#ffffff;stroke-width:0.88803357" />
</svg>